# xmcd
#
# Track frame offsets:
#	150
#	16193
#	37367
#	54451
#	71394
#	85047
#	100211
#	115574
#	129358
#
# Disc length: 1966 seconds
#
# Revision: 1
# Processed by: cddbd v1.5.2PL0 Copyright (c) Steve Scherf et al.
# Submitted via: EasyCDDAExtractor 12.0.1.1
#
DISCID=6a07ac09
DTITLE=John Caugar Mellencamp - Uh - Huh
DYEAR=1983
DGENRE=Blues
TTITLE0=Crumblin' down
TTITLE1=Pink houses
TTITLE2=Authority song
TTITLE3=Warmer place to sleep
TTITLE4=Jackie O
TTITLE5=Play guitar
TTITLE6=Serious business
TTITLE7=Lovin' mother fo ya
TTITLE8=Golden Gates
EXTD=
EXTT0=
EXTT1=
EXTT2=
EXTT3=
EXTT4=
EXTT5=
EXTT6=
EXTT7=
EXTT8=
PLAYORDER=
